<svg width="76" height="77" viewBox="0 0 76 77" fill="none" xmlns="http://www.w3.org/2000/svg">
<rect width="76" height="77" rx="20" fill="#E9D5FF"/>
<path d="M47.4091 23.8V20.5333M47.4091 20.5333V16.8085C47.4091 15.8351 46.6658 15.0228 45.6962 14.9366L35.5988 14.0391C35.3096 14.0134 35.0184 14.055 34.7479 14.1608L24.4399 18.1924C24.1656 18.2997 23.9204 18.4699 23.724 18.6894L16.5337 26.7242C16.3324 26.9492 16.1882 27.2194 16.1134 27.5119L14.0586 35.5487C14.0197 35.7008 14 35.8572 14 36.0142V44.0363C14 44.3338 14.0706 44.627 14.2061 44.8919L15.2768 46.9857C15.7848 47.9791 17.1541 48.4659 17.9827 47.7186C18.2828 47.448 18.4545 47.1365 18.4545 46.6667C18.4545 45.6677 20.329 44.6688 21.4986 44.5106C21.6946 44.4841 21.8912 44.5201 22.0793 44.5814L22.6748 44.7755C23.8893 45.1713 25.1364 44.2661 25.1364 42.9887V29.7793C25.1364 28.8467 25.8202 28.0553 26.7429 27.9199L45.8025 25.1245C46.7252 24.9892 47.4091 24.1977 47.4091 23.2651V20.5333ZM37.3864 48.8444C37.3864 47.9095 38.7719 46.5982 39.1636 46.2462C39.2316 46.185 39.2959 46.1217 39.3562 46.0529L40.4785 44.7726C40.6427 44.5853 40.8425 44.4326 41.0663 44.3232L42.5639 43.591C42.821 43.4653 43.1033 43.4 43.3893 43.4H45.1818H45.5298C46.5677 43.4 47.4091 42.5586 47.4091 41.5207V33.5452C47.4091 32.4168 46.4218 31.5429 45.3018 31.6798L31.2422 33.3982C30.2995 33.5134 29.5909 34.3138 29.5909 35.2636V50.4425C29.5909 50.8202 29.4771 51.1891 29.2643 51.5012L27.4487 54.1641C27.3921 54.2472 27.3289 54.3255 27.2597 54.3985L25.4923 56.2625C24.8048 56.9875 24.8048 58.1236 25.4923 58.8486L27.0751 60.5179C27.2651 60.7183 27.497 60.8744 27.7542 60.975L32.6017 62.8709C32.8199 62.9562 33.052 63 33.2862 63H38.5H42.6001C42.8343 63 43.0665 62.9562 43.2846 62.8709L48.5227 60.8222L52.8001 58.7311C52.9179 58.6735 53.0293 58.6037 53.1326 58.523L58.2787 54.4976C58.4551 54.3596 58.6054 54.1911 58.7226 54.0002L61.6965 49.1538C61.8219 48.9494 61.9071 48.723 61.9473 48.4867L62.9733 42.4679C62.9911 42.3636 63 42.2579 63 42.1521V35.968C63 35.8415 62.9872 35.7153 62.9619 35.5914L61.8864 30.3333L60.8724 27.359C60.8064 27.1654 60.7092 26.9839 60.5848 26.8216L57.498 22.7974C57.4539 22.7399 57.4058 22.6857 57.3541 22.6351L56.6772 21.9733C55.6978 21.0156 54.6266 20.1566 53.4791 19.4086V19.4086C52.7841 18.9555 51.8636 19.4543 51.8636 20.2839V49.2956C51.8636 49.7092 51.7272 50.1112 51.4755 50.4394L48.9252 53.7642C48.6647 54.1038 48.2961 54.3443 47.8803 54.4459L44.4696 55.2797C44.2051 55.3443 43.9298 55.3507 43.6627 55.2985L39.7294 54.5293C38.9849 54.3837 38.401 53.8048 38.249 53.0616L37.9671 51.6835C37.9512 51.6057 37.9303 51.5291 37.906 51.4535C37.7815 51.0653 37.3864 49.7617 37.3864 48.8444Z" stroke="#581C87" stroke-width="1.87926"/>
</svg>
